<svg width="1024" height="1024" viewBox="0 0 1024 1024" xmlns="http://www.w3.org/2000/svg">
  <defs>
    <linearGradient id="bgGrad" x1="0%" y1="0%" x2="100%" y2="100%">
      <stop offset="0%" stop-color="#152030"/>
      <stop offset="100%" stop-color="#0B0F1A"/>
    </linearGradient>
    <linearGradient id="rule" x1="0%" y1="0%" x2="100%" y2="0%">
      <stop offset="0%" stop-color="#C8A84B" stop-opacity="0"/>
      <stop offset="50%" stop-color="#C8A84B" stop-opacity="1"/>
      <stop offset="100%" stop-color="#C8A84B" stop-opacity="0"/>
    </linearGradient>
    <linearGradient id="rule2" x1="0%" y1="0%" x2="100%" y2="0%">
      <stop offset="0%" stop-color="#C8A84B" stop-opacity="0"/>
      <stop offset="50%" stop-color="#C8A84B" stop-opacity="0.35"/>
      <stop offset="100%" stop-color="#C8A84B" stop-opacity="0"/>
    </linearGradient>
  </defs>

  <rect width="1024" height="1024" rx="224" fill="url(#bgGrad)"/>

  <rect x="2" y="2" width="1020" height="1020" rx="222" fill="none"
    stroke="#C8A84B" stroke-width="2" stroke-opacity="0.15"/>

  <line x1="180" y1="100" x2="280" y2="100" stroke="#C8A84B" stroke-width="1.5" stroke-opacity="0.2"/>
  <line x1="180" y1="100" x2="180" y2="180" stroke="#C8A84B" stroke-width="1.5" stroke-opacity="0.2"/>
  <line x1="844" y1="100" x2="744" y2="100" stroke="#C8A84B" stroke-width="1.5" stroke-opacity="0.2"/>
  <line x1="844" y1="100" x2="844" y2="180" stroke="#C8A84B" stroke-width="1.5" stroke-opacity="0.2"/>
  <line x1="180" y1="924" x2="280" y2="924" stroke="#C8A84B" stroke-width="1.5" stroke-opacity="0.2"/>
  <line x1="180" y1="924" x2="180" y2="844" stroke="#C8A84B" stroke-width="1.5" stroke-opacity="0.2"/>
  <line x1="844" y1="924" x2="744" y2="924" stroke="#C8A84B" stroke-width="1.5" stroke-opacity="0.2"/>
  <line x1="844" y1="924" x2="844" y2="844" stroke="#C8A84B" stroke-width="1.5" stroke-opacity="0.2"/>

  <text x="512" y="490" text-anchor="middle"
    font-family="'Noto Naskh Arabic', serif"
    font-size="220" font-weight="700"
    fill="#C8A84B">حسينية</text>

  <rect x="212" y="516" width="600" height="3" fill="url(#rule)"/>

  <text x="512" y="640" text-anchor="middle"
    font-family="'Cinzel', serif"
    font-size="95" font-weight="500"
    letter-spacing="20"
    fill="#F0ECE4">HUSSAINYA</text>

  <rect x="262" y="664" width="500" height="2" fill="url(#rule2)"/>

  <text x="512" y="720" text-anchor="middle"
    font-family="'Cinzel', serif"
    font-size="36" font-weight="400"
    letter-spacing="18"
    fill="#3A6050">ISLAMIC CENTERS</text>

</svg>
